<svg width="27" height="30" viewBox="0 0 27 30" fill="none" xmlns="http://www.w3.org/2000/svg">
<path d="M11.8902 3.05176e-05C5.33413 3.05176e-05 0 5.92684 0 13.2114C0 20.4963 5.33413 26.4227 11.8902 26.4227C18.4467 26.4227 23.7804 20.4963 23.7804 13.2114C23.7804 5.92684 18.4467 3.05176e-05 11.8902 3.05176e-05ZM11.8902 23.9838C6.54439 23.9838 2.19512 19.1513 2.19512 13.2114C2.19512 7.27162 6.54439 2.43905 11.8902 2.43905C17.2361 2.43905 21.5853 7.27157 21.5853 13.2114C21.5853 19.1512 17.2361 23.9838 11.8902 23.9838Z" fill="#AEAEAE"/>
<path d="M26.6784 27.9183L20.3857 20.9264C19.9569 20.45 19.2625 20.45 18.8337 20.9264C18.405 21.4024 18.405 22.1748 18.8337 22.6508L25.1264 29.6427C25.3408 29.8809 25.6214 30 25.9024 30C26.183 30 26.464 29.8809 26.6784 29.6427C27.1072 29.1667 27.1072 28.3943 26.6784 27.9183Z" fill="#AEAEAE"/>
</svg>
